{"title":"Slam.It.Even.Harder.XXX.DVDRip.XviD-PLEASURE","uid":9038017,"size":1466904576,"categoryP":"porn","categoryS":"movies","magnet":"?xt=urn:btih:5d2483596c42f61dc787a4bc713ae6f6ac184dab&amp;dn=Slam.It.Even.Harder.XXX.DVDRip.XviD-PLEASURE&amp;tr=udp%3A%2F%2Ftracker.openbittorrent.com%3A80&amp;tr=udp%3A%2F%2Fopen.demonii.com%3A1337&amp;tr=udp%3A%2F%2Ftracker.coppersurfer.tk%3A6969&amp;tr=udp%3A%2F%2Fexodus.desync.com%3A6969","seeders":1,"leechers":0,"uploader":null,"files":2,"time":1381552909,"description":" &lt;a href=&quot;http://bayimg.com/hAAJHAafN&quot; rel=&quot;nofollow&quot; target=&quot;_NEW&quot;&gt;http://bayimg.com/hAAJHAafN&lt;/a&gt;\n &lt;a href=&quot;\nhttp://bayimg.com/HAAJIaafN&quot; rel=&quot;nofollow&quot; target=&quot;_NEW&quot;&gt;\nhttp://bayimg.com/HAAJIaafN&lt;/a&gt; &lt;a href=&quot;\nhttp://bayimg.com/HAajjaAFn&quot; rel=&quot;nofollow&quot; target=&quot;_NEW&quot;&gt;\nhttp://bayimg.com/HAajjaAFn&lt;/a&gt;\n\nSlam It Even Harder adult DVD Product Description\n\nSlam It Even Harder The Gazzman brings 7 European girls to do what they do best; fuck hard, slam it hard, the Euro style!\nVideo\nFormat: MPEG-4 Visual\nFormat profile: Streaming Video@L1\nFormat settings, BVOP: Yes\nFormat settings, QPel: No\nFormat settings, GMC: No warppoints\nFormat settings, Matrix: Default\nCodec ID: XVID\nCodec ID/Hint: XviD\nDuration: 1h 9mn\nBit rate: 1 258 Kbps\nWidth: 512 pixels\nHeight: 288 pixels\nDisplay aspect ratio: 16/9\nFrame rate: 29.970 fps\nResolution: 24 bits\nColorimetry: 4:2:0\nScan type: Progressive\nBits/(Pixel*Frame): 0.285\nStream size: 630 MiB (90%)\nWriting library: XviD 1.1.2 (UTC 2006-11-01)\n\nAudio\nFormat: MPEG Audio\nFormat version: Version 1\nFormat profile: Layer 3\nCodec ID: 55\nCodec ID/Hint: MP3\nDuration: 1h 9mn\nBit rate mode: Variable\nBit rate: 125 Kbps\nChannel(s): 2 channels\nSampling rate: 48.0 KHz\nResolution: 16 bits\nStream size: 62.6 MiB (9%)\nAlignment: Aligned on interleaves\nInterleave, duration: 24 ms (0.72 video frame)\nInterleave, preload duration: 470 ms ","torrent":{"xt":"urn:btih:5d2483596c42f61dc787a4bc713ae6f6ac184dab","amp;dn":"Slam.It.Even.Harder.XXX.DVDRip.XviD-PLEASURE","amp;tr":["udp%3A%2F%2Ftracker.openbittorrent.com%3A80","udp%3A%2F%2Fopen.demonii.com%3A1337","udp%3A%2F%2Ftracker.coppersurfer.tk%3A6969","udp%3A%2F%2Fexodus.desync.com%3A6969"],"infoHash":"5d2483596c42f61dc787a4bc713ae6f6ac184dab","infoHashBuffer":{"type":"Buffer","data":[93,36,131,89,108,66,246,29,199,135,164,188,113,58,230,246,172,24,77,171]},"announce":[],"urlList":[]}}